<?xml version="1.0" encoding="utf-8"?>
<!-- Generator: Adobe Illustrator 16.0.0, SVG Export Plug-In . SVG Version: 6.00 Build 0)  -->
<!DOCTYPE svg PUBLIC "-//W3C//DTD SVG 1.1//EN" "http://www.w3.org/Graphics/SVG/1.1/DTD/svg11.dtd">
<svg version="1.1" id="Layer_1" xmlns="http://www.w3.org/2000/svg" xmlns:xlink="http://www.w3.org/1999/xlink" x="0px" y="0px"
	 width="656px" height="656px" viewBox="0 0 656 656" enable-background="new 0 0 656 656" xml:space="preserve">
<path fill-rule="evenodd" clip-rule="evenodd" fill="#A7A6A6" d="M508.676,84.388H224.682L82.688,327.087l141.994,242.69h283.994
	l142.002-242.69L508.676,84.388z M474.513,509.779H258.84L151.987,327.087L258.84,144.401h215.672l106.858,182.686L474.513,509.779z
	"/>
<g>
	<polygon fill-rule="evenodd" clip-rule="evenodd" fill="#818181" points="333.514,486.141 283.85,486.141 372.261,335.026 
		396.803,377.938 	"/>
	<polygon fill-rule="evenodd" clip-rule="evenodd" fill="#3CA6DE" points="524.547,594.352 549.089,637.254 372.261,637.254 
		396.803,594.352 	"/>
	<polygon fill-rule="evenodd" clip-rule="evenodd" fill="#3CA6DE" points="572.758,460.29 597.493,417.887 637.509,486.141 
		587.839,486.141 	"/>
	<polygon fill-rule="evenodd" clip-rule="evenodd" fill="#3299D5" points="396.803,594.352 372.261,637.254 297.703,509.761 
		347.349,509.805 	"/>
	<polygon fill-rule="evenodd" clip-rule="evenodd" fill="#3299D5" points="587.839,486.141 637.509,486.141 549.089,637.254 
		524.547,594.352 	"/>
	<polygon fill-rule="evenodd" clip-rule="evenodd" fill="#777777" points="396.803,377.938 372.261,335.026 549.089,335.026 
		524.547,377.938 	"/>
	<polygon fill-rule="evenodd" clip-rule="evenodd" fill="#818181" points="524.547,377.938 549.089,335.026 562.899,358.644 
		538.224,401.039 	"/>
	<polygon fill-rule="evenodd" clip-rule="evenodd" fill="#777777" points="283.85,486.141 333.514,486.141 347.349,509.805 
		297.703,509.761 	"/>
</g>
<g>
	<polygon fill-rule="evenodd" clip-rule="evenodd" fill="#818181" points="245.362,218.837 269.903,175.927 358.323,327.041 
		308.653,327.041 	"/>
	<polygon fill-rule="evenodd" clip-rule="evenodd" fill="#3CA6DE" points="54.328,327.041 4.664,327.041 93.075,175.927 
		117.617,218.837 	"/>
	<polygon fill-rule="evenodd" clip-rule="evenodd" fill="#3CA6DE" points="145.947,435.293 171.061,478.22 93.075,478.154 
		117.617,435.252 	"/>
	<polygon fill-rule="evenodd" clip-rule="evenodd" fill="#3299D5" points="117.617,218.837 93.075,175.927 240.293,175.899 
		215.252,218.826 	"/>
	<polygon fill-rule="evenodd" clip-rule="evenodd" fill="#3299D5" points="117.617,435.252 93.075,478.154 4.664,327.041 
		54.328,327.041 	"/>
	<polygon fill-rule="evenodd" clip-rule="evenodd" fill="#777777" points="308.653,327.041 358.323,327.041 269.903,478.154 
		245.362,435.252 	"/>
	<polygon fill-rule="evenodd" clip-rule="evenodd" fill="#818181" points="245.362,435.252 269.903,478.154 240.119,478.133 
		215.165,435.206 	"/>
	<polygon fill-rule="evenodd" clip-rule="evenodd" fill="#777777" points="269.903,175.927 245.362,218.837 215.252,218.826 
		240.293,175.899 	"/>
</g>
<g>
	<polygon fill-rule="evenodd" clip-rule="evenodd" fill="#818181" points="523.617,276.152 548.159,319.053 371.331,319.053 
		395.873,276.152 	"/>
	<polygon fill-rule="evenodd" clip-rule="evenodd" fill="#3CA6DE" points="523.617,59.736 548.159,16.825 636.579,167.94 
		586.909,167.94 	"/>
	<polygon fill-rule="evenodd" clip-rule="evenodd" fill="#3CA6DE" points="381.463,84.375 331.818,84.375 371.331,16.825 
		395.873,59.736 	"/>
	<polygon fill-rule="evenodd" clip-rule="evenodd" fill="#3299D5" points="586.909,167.94 636.579,167.94 562.375,294.69 
		537.641,252.243 	"/>
	<polygon fill-rule="evenodd" clip-rule="evenodd" fill="#3299D5" points="395.873,59.736 371.331,16.825 548.159,16.825 
		523.617,59.736 	"/>
	<polygon fill-rule="evenodd" clip-rule="evenodd" fill="#777777" points="395.873,276.152 371.331,319.053 282.92,167.94 
		332.584,167.94 	"/>
	<polygon fill-rule="evenodd" clip-rule="evenodd" fill="#818181" points="332.584,167.94 282.92,167.94 296.831,144.358 
		346.389,144.402 	"/>
	<polygon fill-rule="evenodd" clip-rule="evenodd" fill="#777777" points="548.159,319.053 523.617,276.152 537.641,252.243 
		562.375,294.69 	"/>
</g>
</svg>
